<?xml version="1.0" encoding="utf-8"?>
<!-- Generator: Adobe Illustrator 24.0.2, SVG Export Plug-In . SVG Version: 6.00 Build 0)  -->
<svg version="1.1" xmlns="http://www.w3.org/2000/svg" xmlns:xlink="http://www.w3.org/1999/xlink" x="0px" y="0px"
	 viewBox="0 0 1000 1000" style="enable-background:new 0 0 1000 1000;" xml:space="preserve">
<style type="text/css">
	.st0{fill:#181818;}
	.st1{fill:#FFFFFF;}
	.st2{fill:#CCCCCC;stroke:#542525;stroke-width:1.1339;stroke-miterlimit:10;}
	.st3{fill:#E57373;}
</style>
<g id="Capa_2">
	<circle class="st0" cx="499.5" cy="494" r="472.3"/>
</g>
<g id="Capa_1">
	<path class="st1" d="M125.9,541.1c6.1,0,11.2,0,16.3,0c54.6,0,109.3,0.2,163.9-0.2c8.3-0.1,12.1,2.2,14.7,10.5
		c24.4,78.1,96.9,131.1,179.2,131.5c82.1,0.4,155.1-53.2,180-132c1.7-5.4,2.8-10,10.6-9.9c59.8,0.4,119.6,0.2,179.4,0.3
		c1.1,0,2.1,0.4,3.2,0.6c-7.3,127.7-123.2,306.4-334.7,327.8C318.4,891.9,146.3,727.1,125.9,541.1z"/>
</g>
<g id="Capa_4">
	<path class="st2" d="M503.7,399.6c53.5,3.7,94.7,48.5,90.9,98.9c-3.9,52.7-48.6,93.2-99,89.9c-52.2-3.4-92.9-48.4-89.5-99.1
		C409.5,437,454,396.1,503.7,399.6z"/>
</g>
<g id="Capa_3">
	<path class="st3" d="M874,446.6c-26,0-51.1,0-76.1,0c-34.7,0-69.4-0.2-104.1,0.2c-7.7,0.1-11.4-1.8-14.1-9.7
		c-26.5-77.4-81.1-123-162-130.8c-79.5-7.7-141,26.5-182.1,95.3c-6.9,11.6-10.4,25.1-16.2,37.4c-1.5,3.2-5.6,7.3-8.5,7.3
		c-60.5,0.4-121,0.3-181.6,0.2c-1,0-2.1-0.6-3.1-0.9C141.7,284.7,286.5,115,502.2,116.1C715.4,117.2,858.7,285.5,874,446.6z"/>
</g>
</svg>
